<svg t="1770705112932" class="icon" viewBox="0 0 1026 1024" version="1.1" xmlns="http://www.w3.org/2000/svg" p-id="6093" width="200" height="200"><path d="M357.367653 1024a96.425568 96.425568 0 0 1-88.591448-134.351494L126.370942 704.04576a96.352352 96.352352 0 1 1-7.321607-185.456313l214.523095-371.571572A96.425568 96.425568 0 1 1 506.362362 63.697984l301.430574 61.940798A96.352352 96.352352 0 1 1 929.84413 267.824396l41.95281 395.366795a96.425568 96.425568 0 1 1-120.806521 142.25883l-398.295438 139.11054a96.20592 96.20592 0 0 1-95.180895 79.293007z m0-192.777921a95.693408 95.693408 0 0 1 82.660947 46.858287l393.389961-137.646218a96.864865 96.864865 0 0 1 69.994566-83.393107h0.439297L863.949664 275.365651a96.279136 96.279136 0 0 1-73.216073-85.003861v-0.36608l-285.542686-58.572859V131.788932a96.498784 96.498784 0 0 1-118.39039 56.596024h-0.366081l-212.326612 367.471472a96.425568 96.425568 0 0 1 4.026884 106.675819l136.840841 177.915057h0.36608a95.546976 95.546976 0 0 1 42.026026-9.225225z" p-id="6094"></path></svg>