<?xml version="1.0" standalone="no"?><!DOCTYPE svg PUBLIC "-//W3C//DTD SVG 1.1//EN" "http://www.w3.org/Graphics/SVG/1.1/DTD/svg11.dtd"><svg t="1770788712197" class="icon" viewBox="0 0 1024 1024" version="1.1" xmlns="http://www.w3.org/2000/svg" p-id="7235" xmlns:xlink="http://www.w3.org/1999/xlink" width="200" height="200"><path d="M1022.4928 483.456h-119.232l1.088 11.264a382.4 382.4 0 0 1-228.16 376.128l-16.192 6.656c-113.472 43.904-242.368 30.336-344.96-32.704l-16.896-10.432 10.688-17.152 42.24-67.968 10.112-16.192 1.024-1.728-315.968-18.368L179.9968 1024l48.32-77.632 10.112-16.192 15.808 10.176c135.04 86.72 296.32 104.32 449.472 45.12 213.632-82.56 342.272-296.896 317.248-519.36l1.536 17.344zM788.4448 84.096C651.3568-3.84 471.5808-25.856 320.3488 32.64 106.6528 115.2-21.9232 329.472 3.1008 551.936l-1.6-17.408h119.232l-1.024-11.264A382.4 382.4 0 0 1 347.8688 147.2l16.192-6.656c122.688-47.424 260.288-28.672 361.728 44.736l15.04 10.88-9.984 15.936-59.712 95.744 291.072-1.088L858.1408 7.68l-43.776 70.4-10.112 16.256-15.808-10.176z" p-id="7236"></path></svg>