<svg viewBox="0 0 1024 1024" xmlns="http://www.w3.org/2000/svg" width="200" height="200">
  <path d="M448.2 184c70.6 0 136.9 27.5 186.8 77.4s77.4 116.2 77.4 186.8S684.9 585.1 635 635s-116.2 77.4-186.8 77.4-136.9-27.5-186.8-77.4S184 518.7 184 448.2c0-70.6 27.5-136.9 77.4-186.8S377.6 184 448.2 184m0-88c-90.1 0-180.3 34.4-249 103.2-137.5 137.5-137.5 360.5 0 498.1 68.8 68.8 158.9 103.2 249 103.2s180.3-34.4 249-103.2c137.5-137.5 137.5-360.5 0-498.1C628.4 130.4 538.3 96 448.2 96z" fill="#333333"/>
  <path d="M697.2 653.2c-11.3 0-22.5 4.3-31.1 12.9-17.2 17.2-17.2 45.1 0 62.3l186.8 186.8c8.6 8.6 19.9 12.9 31.1 12.9 11.3 0 22.5-4.3 31.1-12.9 17.2-17.2 17.2-45.1 0-62.3L728.3 666.1c-8.6-8.6-19.8-12.9-31.1-12.9zM567.3 417.1c-8-8-19-12.9-31.1-12.9h-176c-24.3 0-44.1 19.7-44.1 44.1 0 12.2 4.9 23.2 12.9 31.1 8 8 19 12.9 31.1 12.9h176.1c24.3 0 44.1-19.7 44.1-44.1 0-12.1-5-23.2-13-31.1z" fill="#333333"/>
</svg>
